<mxfile host="app.diagrams.net" agent="Mozilla/5.0 (Windows NT 10.0; Win64; x64) AppleWebKit/537.36 (KHTML, like Gecko) Chrome/109.0.0.0 Safari/537.36" version="26.2.8">
  <diagram name="第 1 页" id="MF4k416NzMRzkoWrXf2p">
    <mxGraphModel dx="1428" dy="761" grid="1" gridSize="10" guides="1" tooltips="1" connect="1" arrows="1" fold="1" page="1" pageScale="1" pageWidth="827" pageHeight="1169" math="0" shadow="0">
      <root>
        <mxCell id="0" />
        <mxCell id="1" parent="0" />
        <mxCell id="vKj7E2-8sj6tP5xMNl5d-1" value="" style="rounded=0;whiteSpace=wrap;html=1;dashed=1;fillColor=none;" parent="1" vertex="1">
          <mxGeometry x="159" y="320" width="468" height="400" as="geometry" />
        </mxCell>
        <mxCell id="vKj7E2-8sj6tP5xMNl5d-2" value="" style="rounded=0;whiteSpace=wrap;html=1;dashed=1;fillColor=none;" parent="1" vertex="1">
          <mxGeometry x="159" y="71" width="468" height="239" as="geometry" />
        </mxCell>
        <mxCell id="vKj7E2-8sj6tP5xMNl5d-3" style="edgeStyle=orthogonalEdgeStyle;rounded=0;orthogonalLoop=1;jettySize=auto;html=1;exitX=0.5;exitY=1;exitDx=0;exitDy=0;entryX=0.5;entryY=0;entryDx=0;entryDy=0;" parent="1" source="vKj7E2-8sj6tP5xMNl5d-4" target="vKj7E2-8sj6tP5xMNl5d-6" edge="1">
          <mxGeometry relative="1" as="geometry" />
        </mxCell>
        <mxCell id="vKj7E2-8sj6tP5xMNl5d-4" value="&lt;font style=&quot;font-size: 20px;&quot;&gt;&lt;b&gt;输入数据&lt;/b&gt;&lt;/font&gt;" style="rounded=1;whiteSpace=wrap;html=1;" parent="1" vertex="1">
          <mxGeometry x="200" y="100" width="206" height="50" as="geometry" />
        </mxCell>
        <mxCell id="vKj7E2-8sj6tP5xMNl5d-5" style="edgeStyle=orthogonalEdgeStyle;rounded=0;orthogonalLoop=1;jettySize=auto;html=1;exitX=0.5;exitY=1;exitDx=0;exitDy=0;entryX=0.5;entryY=0;entryDx=0;entryDy=0;" parent="1" source="vKj7E2-8sj6tP5xMNl5d-6" target="vKj7E2-8sj6tP5xMNl5d-8" edge="1">
          <mxGeometry relative="1" as="geometry" />
        </mxCell>
        <mxCell id="vKj7E2-8sj6tP5xMNl5d-6" value="" style="rounded=1;whiteSpace=wrap;html=1;fillColor=#dae8fc;strokeColor=#6c8ebf;" parent="1" vertex="1">
          <mxGeometry x="200" y="165.5" width="206" height="50" as="geometry" />
        </mxCell>
        <mxCell id="vKj7E2-8sj6tP5xMNl5d-7" style="edgeStyle=orthogonalEdgeStyle;rounded=0;orthogonalLoop=1;jettySize=auto;html=1;exitX=0.5;exitY=1;exitDx=0;exitDy=0;entryX=0.5;entryY=0;entryDx=0;entryDy=0;dashed=1;" parent="1" source="vKj7E2-8sj6tP5xMNl5d-8" target="vKj7E2-8sj6tP5xMNl5d-10" edge="1">
          <mxGeometry relative="1" as="geometry" />
        </mxCell>
        <mxCell id="vKj7E2-8sj6tP5xMNl5d-8" value="&lt;b style=&quot;font-size: 20px;&quot;&gt;切割层&lt;/b&gt;" style="rounded=1;whiteSpace=wrap;html=1;fillColor=#f8cecc;strokeColor=#b85450;" parent="1" vertex="1">
          <mxGeometry x="200" y="240" width="206" height="50" as="geometry" />
        </mxCell>
        <mxCell id="vKj7E2-8sj6tP5xMNl5d-9" style="edgeStyle=orthogonalEdgeStyle;rounded=0;orthogonalLoop=1;jettySize=auto;html=1;exitX=0.5;exitY=1;exitDx=0;exitDy=0;entryX=0.5;entryY=0;entryDx=0;entryDy=0;" parent="1" source="vKj7E2-8sj6tP5xMNl5d-10" target="vKj7E2-8sj6tP5xMNl5d-12" edge="1">
          <mxGeometry relative="1" as="geometry" />
        </mxCell>
        <mxCell id="vKj7E2-8sj6tP5xMNl5d-10" value="&lt;b style=&quot;font-size: 20px;&quot;&gt;输入层&lt;/b&gt;" style="rounded=1;whiteSpace=wrap;html=1;fillColor=#f8cecc;strokeColor=#b85450;" parent="1" vertex="1">
          <mxGeometry x="200" y="340" width="206" height="50" as="geometry" />
        </mxCell>
        <mxCell id="vKj7E2-8sj6tP5xMNl5d-11" style="edgeStyle=orthogonalEdgeStyle;rounded=0;orthogonalLoop=1;jettySize=auto;html=1;exitX=0.5;exitY=1;exitDx=0;exitDy=0;entryX=0.5;entryY=0;entryDx=0;entryDy=0;" parent="1" source="vKj7E2-8sj6tP5xMNl5d-12" target="vKj7E2-8sj6tP5xMNl5d-14" edge="1">
          <mxGeometry relative="1" as="geometry" />
        </mxCell>
        <mxCell id="vKj7E2-8sj6tP5xMNl5d-12" value="" style="rounded=1;whiteSpace=wrap;html=1;fillColor=#d5e8d4;strokeColor=#82b366;" parent="1" vertex="1">
          <mxGeometry x="200" y="412" width="206" height="50" as="geometry" />
        </mxCell>
        <mxCell id="vKj7E2-8sj6tP5xMNl5d-13" style="edgeStyle=orthogonalEdgeStyle;rounded=0;orthogonalLoop=1;jettySize=auto;html=1;exitX=0.5;exitY=1;exitDx=0;exitDy=0;entryX=0.5;entryY=0;entryDx=0;entryDy=0;" parent="1" source="vKj7E2-8sj6tP5xMNl5d-14" target="vKj7E2-8sj6tP5xMNl5d-16" edge="1">
          <mxGeometry relative="1" as="geometry" />
        </mxCell>
        <mxCell id="vKj7E2-8sj6tP5xMNl5d-14" value="" style="rounded=1;whiteSpace=wrap;html=1;fillColor=#d5e8d4;strokeColor=#82b366;" parent="1" vertex="1">
          <mxGeometry x="200" y="484" width="206" height="50" as="geometry" />
        </mxCell>
        <mxCell id="vKj7E2-8sj6tP5xMNl5d-15" style="edgeStyle=orthogonalEdgeStyle;rounded=0;orthogonalLoop=1;jettySize=auto;html=1;exitX=0.5;exitY=1;exitDx=0;exitDy=0;entryX=0.5;entryY=0;entryDx=0;entryDy=0;" parent="1" source="vKj7E2-8sj6tP5xMNl5d-16" target="vKj7E2-8sj6tP5xMNl5d-18" edge="1">
          <mxGeometry relative="1" as="geometry" />
        </mxCell>
        <mxCell id="vKj7E2-8sj6tP5xMNl5d-16" value="" style="rounded=1;whiteSpace=wrap;html=1;fillColor=#d5e8d4;strokeColor=#82b366;" parent="1" vertex="1">
          <mxGeometry x="219.5" y="556" width="167" height="50" as="geometry" />
        </mxCell>
        <mxCell id="vKj7E2-8sj6tP5xMNl5d-23" style="edgeStyle=orthogonalEdgeStyle;rounded=0;orthogonalLoop=1;jettySize=auto;html=1;exitX=0.5;exitY=1;exitDx=0;exitDy=0;entryX=0.5;entryY=1;entryDx=0;entryDy=0;curved=1;" parent="1" source="vKj7E2-8sj6tP5xMNl5d-18" target="vKj7E2-8sj6tP5xMNl5d-22" edge="1">
          <mxGeometry relative="1" as="geometry" />
        </mxCell>
        <mxCell id="vKj7E2-8sj6tP5xMNl5d-18" value="" style="rounded=1;whiteSpace=wrap;html=1;fillColor=#d5e8d4;strokeColor=#82b366;" parent="1" vertex="1">
          <mxGeometry x="239.5" y="628" width="127" height="50" as="geometry" />
        </mxCell>
        <mxCell id="vKj7E2-8sj6tP5xMNl5d-20" value="&lt;span style=&quot;color: rgb(0, 0, 0); font-family: Helvetica; font-style: normal; font-variant-ligatures: normal; font-variant-caps: normal; letter-spacing: normal; orphans: 2; text-align: center; text-indent: 0px; text-transform: none; white-space: normal; widows: 2; word-spacing: 0px; -webkit-text-stroke-width: 0px; background-color: rgb(251, 251, 251); text-decoration-thickness: initial; text-decoration-style: initial; text-decoration-color: initial; float: none; display: inline !important;&quot;&gt;&lt;b style=&quot;&quot;&gt;&lt;font style=&quot;font-size: 25px;&quot;&gt;客户端&lt;/font&gt;&lt;/b&gt;&lt;/span&gt;" style="text;whiteSpace=wrap;html=1;" parent="1" vertex="1">
          <mxGeometry x="490" y="90" width="110" height="50" as="geometry" />
        </mxCell>
        <mxCell id="vKj7E2-8sj6tP5xMNl5d-21" value="&lt;span style=&quot;color: rgb(0, 0, 0); font-family: Helvetica; font-style: normal; font-variant-ligatures: normal; font-variant-caps: normal; letter-spacing: normal; orphans: 2; text-align: center; text-indent: 0px; text-transform: none; white-space: normal; widows: 2; word-spacing: 0px; -webkit-text-stroke-width: 0px; background-color: rgb(251, 251, 251); text-decoration-thickness: initial; text-decoration-style: initial; text-decoration-color: initial; float: none; display: inline !important;&quot;&gt;&lt;b style=&quot;&quot;&gt;&lt;font style=&quot;font-size: 25px;&quot;&gt;服务端&lt;/font&gt;&lt;/b&gt;&lt;/span&gt;" style="text;whiteSpace=wrap;html=1;" parent="1" vertex="1">
          <mxGeometry x="490" y="670" width="110" height="50" as="geometry" />
        </mxCell>
        <mxCell id="vKj7E2-8sj6tP5xMNl5d-26" style="edgeStyle=orthogonalEdgeStyle;rounded=0;orthogonalLoop=1;jettySize=auto;html=1;exitX=0.5;exitY=0;exitDx=0;exitDy=0;entryX=0.5;entryY=1;entryDx=0;entryDy=0;dashed=1;" parent="1" source="vKj7E2-8sj6tP5xMNl5d-22" target="vKj7E2-8sj6tP5xMNl5d-24" edge="1">
          <mxGeometry relative="1" as="geometry" />
        </mxCell>
        <mxCell id="vKj7E2-8sj6tP5xMNl5d-22" value="" style="rounded=1;whiteSpace=wrap;html=1;fillColor=#f8cecc;strokeColor=#b85450;" parent="1" vertex="1">
          <mxGeometry x="430" y="340" width="167" height="50" as="geometry" />
        </mxCell>
        <mxCell id="vKj7E2-8sj6tP5xMNl5d-27" style="edgeStyle=orthogonalEdgeStyle;rounded=0;orthogonalLoop=1;jettySize=auto;html=1;exitX=0.5;exitY=0;exitDx=0;exitDy=0;entryX=0.5;entryY=1;entryDx=0;entryDy=0;" parent="1" source="vKj7E2-8sj6tP5xMNl5d-24" target="vKj7E2-8sj6tP5xMNl5d-25" edge="1">
          <mxGeometry relative="1" as="geometry" />
        </mxCell>
        <mxCell id="vKj7E2-8sj6tP5xMNl5d-24" value="" style="rounded=1;whiteSpace=wrap;html=1;fillColor=#f8cecc;strokeColor=#b85450;" parent="1" vertex="1">
          <mxGeometry x="430" y="240" width="167" height="50" as="geometry" />
        </mxCell>
        <mxCell id="vKj7E2-8sj6tP5xMNl5d-25" value="&lt;font style=&quot;font-size: 20px;&quot;&gt;&lt;b&gt;标签&lt;/b&gt;&lt;/font&gt;" style="rounded=1;whiteSpace=wrap;html=1;fillColor=#dae8fc;strokeColor=#6c8ebf;" parent="1" vertex="1">
          <mxGeometry x="460" y="160" width="107" height="50" as="geometry" />
        </mxCell>
        <mxCell id="g_3lXdNLbIVxTueZ5Kww-1" value="&lt;b&gt;&lt;font style=&quot;font-size: 18px;&quot;&gt;粉碎数据&lt;/font&gt;&lt;/b&gt;" style="text;html=1;align=center;verticalAlign=middle;whiteSpace=wrap;rounded=0;" vertex="1" parent="1">
          <mxGeometry x="310" y="300" width="83.5" height="30" as="geometry" />
        </mxCell>
        <mxCell id="g_3lXdNLbIVxTueZ5Kww-3" value="&lt;span style=&quot;font-size: 18px;&quot;&gt;&lt;b&gt;模型输出&lt;/b&gt;&lt;/span&gt;" style="text;html=1;align=center;verticalAlign=middle;whiteSpace=wrap;rounded=0;" vertex="1" parent="1">
          <mxGeometry x="520.25" y="300" width="76.75" height="30" as="geometry" />
        </mxCell>
      </root>
    </mxGraphModel>
  </diagram>
</mxfile>
